<svg width="1366" height="1343" viewBox="0 0 1366 1343" fill="none" xmlns="http://www.w3.org/2000/svg">
<rect width="1366" height="1343" fill="#181515"/>
<g filter="url(#filter0_d_0_1)">
<path fill-rule="evenodd" clip-rule="evenodd" d="M283 0C126.703 0 0 126.703 0 283V1323L913.958 1335.87C1153.23 1339.24 1349 1146.21 1349 906.915V0H283ZM780.415 744.537C832.19 744.46 881.821 727.752 918.388 698.087C954.955 668.422 975.463 628.231 975.401 586.355C975.339 544.48 954.712 504.35 918.057 474.793C881.402 445.237 831.722 428.676 779.947 428.752L780.04 491.619C844.103 491.872 895.966 534.206 896.043 586.473C896.121 638.74 844.383 681.228 780.322 681.67L780.415 744.537ZM689.885 428H768.861V998H689.861V595.173L520.361 911.174H432.146L689.861 428.044V428H689.885ZM368.861 430H656.361L615.861 497H368.861V430ZM650.861 931H368.861V998H650.861V931ZM786.367 775L959.121 997.568L893.361 997.568L786.367 859.5L786.367 775ZM880.865 754.124L825.019 795.335L857.575 835.289L939.733 773.072L941.935 706.924L880.865 754.124ZM368.861 680H524.861L486.861 747H368.861V680ZM291.539 429L286.861 997.04L353.859 997.591L358.536 429.552L291.539 429ZM86.2387 471.746L225.861 322L225.936 322.058C275.713 267.578 336.454 222.546 404.696 189.531C472.972 156.499 547.418 136.143 623.785 129.626C700.152 123.108 776.943 130.556 849.775 151.544C922.607 172.533 990.052 206.651 1048.26 251.951C1106.47 297.25 1154.3 352.844 1189.02 415.558C1223.75 478.272 1244.68 546.878 1250.64 617.459C1256.59 688.04 1247.44 759.214 1223.71 826.917C1200.29 893.749 1163.12 955.907 1114.28 1009.94L1114.36 1010L954.098 1177L934.361 1044L1025.12 944.15L1025.05 944.097C1025.21 943.922 1025.37 943.747 1025.53 943.572C1192.84 760.383 1169.11 487.86 972.526 334.874C775.944 181.888 480.954 206.372 313.647 389.56C313.488 389.735 313.328 389.91 313.168 390.086L312.66 389.69L225.861 471.746H86.2387ZM150.036 1180H189.284C200.068 1180 209.383 1177.89 217.229 1173.67C225.076 1169.42 231.107 1163.32 235.324 1155.37C239.575 1147.42 241.701 1137.92 241.701 1126.86C241.701 1115.83 239.575 1106.36 235.324 1098.45C231.072 1090.5 225.024 1084.41 217.178 1080.2C209.366 1075.94 200.051 1073.82 189.232 1073.82H150.036V1180ZM188.299 1158.12H175.7V1095.7H187.936C194.019 1095.7 199.135 1096.72 203.283 1098.76C207.465 1100.76 210.628 1104.04 212.771 1108.61C214.914 1113.14 215.985 1119.22 215.985 1126.86C215.985 1134.5 214.914 1140.61 212.771 1145.21C210.662 1149.77 207.534 1153.07 203.386 1155.11C199.273 1157.12 194.244 1158.12 188.299 1158.12ZM293.185 1073.82V1180H367.222V1159.16H318.849V1137.33H363.437V1116.44H318.849V1094.66H367.222V1073.82H293.185ZM419.794 1073.82V1180H493.831V1159.16H445.458V1137.33H490.046V1116.44H445.458V1094.66H493.831V1073.82H419.794ZM546.403 1073.82V1180H572.067V1147.03H589.488C597.611 1147.03 604.627 1145.52 610.538 1142.51C616.448 1139.51 620.993 1135.27 624.173 1129.81C627.388 1124.32 628.995 1117.91 628.995 1110.58C628.995 1103.28 627.422 1096.89 624.277 1091.39C621.132 1085.86 616.656 1081.56 610.849 1078.48C605.076 1075.37 598.215 1073.82 590.266 1073.82H546.403ZM572.067 1126.81H584.718C588.589 1126.81 591.821 1126.13 594.413 1124.78C597.04 1123.44 599.028 1121.55 600.376 1119.13C601.724 1116.68 602.398 1113.83 602.398 1110.58C602.398 1107.29 601.724 1104.46 600.376 1102.07C599.028 1099.66 597.04 1097.79 594.413 1096.48C591.786 1095.16 588.555 1094.51 584.718 1094.51H572.067V1126.81ZM660.699 1180H688.282L695.267 1157.71H731.936L738.936 1180H766.518L730.692 1073.82H696.525L660.699 1180ZM725.815 1138.21L713.997 1100.57H713.168L701.375 1138.21H725.815ZM814.45 1073.82V1180H840.114V1151.23L850.38 1138.26L876.822 1180H907.515L869.2 1121.21L906.841 1073.82H876.614L841.514 1118.72H840.114V1073.82H814.45Z" fill="#010101"/>
</g>
<defs>
<filter id="filter0_d_0_1" x="0" y="0" width="1366" height="1342.92" filterUnits="userSpaceOnUse" color-interpolation-filters="sRGB">
<feFlood flood-opacity="0" result="BackgroundImageFix"/>
<feColorMatrix in="SourceAlpha" type="matrix" values="0 0 0 0 0 0 0 0 0 0 0 0 0 0 0 0 0 0 127 0" result="hardAlpha"/>
<feOffset dx="14" dy="4"/>
<feGaussianBlur stdDeviation="1.5"/>
<feComposite in2="hardAlpha" operator="out"/>
<feColorMatrix type="matrix" values="0 0 0 0 1 0 0 0 0 1 0 0 0 0 1 0 0 0 0.25 0"/>
<feBlend mode="normal" in2="BackgroundImageFix" result="effect1_dropShadow_0_1"/>
<feBlend mode="normal" in="SourceGraphic" in2="effect1_dropShadow_0_1" result="shape"/>
</filter>
</defs>
</svg>
